<svg id="Capa_1" enable-background="new 0 0 512 512" height="512" viewBox="0 0 512 512" width="512" xmlns="http://www.w3.org/2000/svg"><g><g><g><path d="m460.144 379.39c-16.028-30.664-51.337-44.066-82.667-33.975-.614.198-1.282-.051-1.605-.61l-66.181-114.629-30.008 44.978 26.329 3.76c.328.047.617.242.783.529l45.572 78.933c.323.559.204 1.261-.274 1.694-20.384 18.449-27.961 47.496-19.099 73.59.174.512.031 1.076-.371 1.437l-29.7 26.584c-1.43 1.28-1.898 3.175-1.221 4.946.685 1.792 2.321 2.95 4.168 2.95.488 0 .983-.081 1.472-.242l37.896-12.436c.513-.168 1.073-.01 1.429.395 21.953 24.948 59.56 31.323 89.029 12.749 30.347-19.127 41.066-58.861 24.448-90.653zm-61.474 75.33c-23.906 0-43.286-19.38-43.286-43.286s19.38-43.286 43.286-43.286 43.286 19.38 43.286 43.286c-.001 23.906-19.38 43.286-43.286 43.286z" fill="#a0aab7"/></g></g><g><path d="m249.674 230.176h60.017l-131.259-227.346c-.898-1.557-3.104-2.83-4.901-2.83-12.546 7.243-17.558 22.817-11.593 36.018z" fill="#a0aab7"/></g><g><g><path d="m385.834 0c-1.797 0-4.003 1.273-4.902 2.83l-197.439 341.975c-.323.559-.99.808-1.604.61-30.708-9.891-65.238 2.788-81.69 32.168-16.101 28.754-9.311 64.673 14.64 85.841.483.427.605 1.129.283 1.687l-3.5 6.062c-5.275 9.137-15.107 14.814-25.659 14.814h-39.473c-1.327 0-2.439 1.063-2.441 2.39-.028 13.021 10.557 23.623 23.57 23.623h18.344c19.878 0 38.246-10.605 48.186-27.82l3.572-6.186c.32-.554.983-.8 1.591-.602 30.472 9.913 64.756-2.434 81.419-31.296 16.629-28.802 10.241-64.577-13.458-86.025-.478-.433-.596-1.136-.274-1.694l45.572-78.933c.166-.287.454-.482.782-.529l36.094-5.154c.366-.052.679-.288.831-.624l107.149-237.119c5.965-13.201.953-28.775-11.593-36.018zm-225.139 454.72c-23.906 0-43.286-19.38-43.286-43.286s19.38-43.286 43.286-43.286 43.286 19.38 43.286 43.286-19.38 43.286-43.286 43.286z" fill="#b9c1cb"/></g></g><g><path d="m306.406 231.396c0 4.572-1.148 8.875-3.171 12.638l-10.915 10.915c-3.763 2.023-8.066 3.171-12.638 3.171-14.759 0-26.723-11.965-26.723-26.723 0-4.571 1.148-8.875 3.171-12.638l10.814-10.86c3.787-2.057 8.126-3.225 12.738-3.225 14.759-.002 26.724 11.963 26.724 26.722z" fill="#dae4ea"/></g><g><path d="m285.864 205.391c3.211 4.41 5.106 9.841 5.106 15.714 0 14.759-11.964 26.723-26.723 26.723-2.128 0-4.198-.249-6.182-.719 4.859 6.672 12.732 11.009 21.617 11.009 4.571 0 8.875-1.148 12.638-3.171l10.915-10.915c2.023-3.763 3.171-8.066 3.171-12.638 0-12.629-8.763-23.213-20.542-26.003z" fill="#c6d0da"/></g><path d="m256.13 218.758 36.189 36.189c4.622-2.485 8.429-6.292 10.914-10.914l-36.189-36.189c-4.622 2.485-8.428 6.292-10.914 10.914z" fill="#c6d0da"/><path d="m289.387 230.186c-1.819 5.036-5.108 9.368-9.349 12.48l12.282 12.282c4.621-2.485 8.426-6.289 10.912-10.909l.003-.006z" fill="#b9c1cb"/></g></svg>