<?xml version="1.0" standalone="no"?><svg xmlns="http://www.w3.org/2000/svg" viewBox="0 0 1440 320"><path fill="#ffffff" fill-opacity="1" d="M0,256L40,224C80,192,160,128,240,128C320,128,400,192,480,202.7C560,213,640,171,720,138.7C800,107,880,85,960,112C1040,139,1120,213,1200,229.3C1280,245,1360,203,1400,181.3L1440,160L1440,320L1400,320C1360,320,1280,320,1200,320C1120,320,1040,320,960,320C880,320,800,320,720,320C640,320,560,320,480,320C400,320,320,320,240,320C160,320,80,320,40,320L0,320Z"></path></svg>